<svg xmlns="http://www.w3.org/2000/svg" xmlns:xlink="http://www.w3.org/1999/xlink" width="100" height="100" viewBox="0 0 100 100"><svg viewBox="0 0 99.999997 99.999997"><g transform="translate(-149.6453,-589.21878)"><path d="m 199.64552,591.21879 a 48.000099,48.000099 0 0 0 -48.00022,48.00022 48.000099,48.000099 0 0 0 48.00022,47.99977 48.000099,48.000099 0 0 0 47.99977,-47.99977 48.000099,48.000099 0 0 0 -47.99977,-48.00022 z m 0,5.42088 a 42.107528,42.578935 0 0 1 42.10718,42.57934 42.107528,42.578935 0 0 1 -42.10718,42.57887 42.107528,42.578935 0 0 1 -42.10763,-42.57887 42.107528,42.578935 0 0 1 42.10763,-42.57934 z" fill="#fafdcb"></path></g></svg><g transform="translate(50 50) scale(0.69 0.69) rotate(0) translate(-50 -50)" style="fill:#fafdcb"><svg fill="#fafdcb" xmlns="http://www.w3.org/2000/svg" xmlns:xlink="http://www.w3.org/1999/xlink" version="1.1" x="0px" y="0px" viewBox="0 0 512 512" enable-background="new 0 0 512 512" xml:space="preserve"><path d="M452.096,280.271c-5.082-2.888-11.355-2.483-15.998,1.047l-10.111,7.689c-7.935,6.035-14.872,13.607-20.613,22.508  c-12.538,19.432-43.316,51.586-110.284,53.75c-2.343-27.289-10.375-124.986-10.973-187.725  c28.923-2.948,93.837-12.048,104.723-34.908c1.608-3.372,1.371-7.285-0.638-10.47c-2.049-3.244-5.553-5.183-9.377-5.183h-97.772  l-1.112-14.055c9.76-8.623,14.165-21.896,11.32-35.04c-2.928-13.499-13.984-24.479-27.507-27.32  c-10.894-2.289-22.008,0.354-30.501,7.249c-8.498,6.898-13.373,17.124-13.373,28.059c0,10.432,4.479,20.238,12.182,27.05  l-1.112,14.057h-97.772c-3.824,0-7.328,1.939-9.377,5.183c-2.009,3.185-2.246,7.098-0.642,10.463  c10.89,22.867,75.804,31.967,104.727,34.915c-0.598,62.732-8.63,160.434-10.973,187.725c-66.968-2.164-97.746-34.316-110.284-53.75  c-5.741-8.896-12.674-16.469-20.613-22.506l-10.107-7.691c-4.643-3.525-10.916-3.939-16.002-1.047  c-5.051,2.878-7.892,8.457-7.228,14.211c11.268,98.24,124.149,130.764,129.056,132.129c23.119,6.084,46.037,21.463,57.644,30.088  c4.972,3.692,10.797,5.541,16.622,5.541c5.829,0,11.654-1.849,16.626-5.541c11.606-8.625,34.523-24.004,57.753-30.117  c4.797-1.336,117.679-33.859,128.946-132.098C459.987,288.729,457.147,283.149,452.096,280.271z M241.7,86.884  c0-7.897,6.402-14.3,14.3-14.3s14.3,6.402,14.3,14.3c0,7.898-6.402,14.3-14.3,14.3S241.7,94.782,241.7,86.884z"></path></svg></g></svg>