<svg xmlns="http://www.w3.org/2000/svg" xmlns:xlink="http://www.w3.org/1999/xlink" width="100" height="100" viewBox="0 0 100 100"><svg viewBox="0 0 99.999997 99.999997"><g transform="translate(-149.6453,-589.21878)"><path d="m 199.64552,591.21879 a 48.000099,48.000099 0 0 0 -48.00022,48.00022 48.000099,48.000099 0 0 0 48.00022,47.99977 48.000099,48.000099 0 0 0 47.99977,-47.99977 48.000099,48.000099 0 0 0 -47.99977,-48.00022 z m 0,5.42088 a 42.107528,42.578935 0 0 1 42.10718,42.57934 42.107528,42.578935 0 0 1 -42.10718,42.57887 42.107528,42.578935 0 0 1 -42.10763,-42.57887 42.107528,42.578935 0 0 1 42.10763,-42.57934 z" fill="#fafdcb"></path></g></svg><g transform="translate(50 50) scale(0.69 0.69) rotate(0) translate(-50 -50)" style="fill:#fafdcb"><svg fill="#fafdcb" xmlns="http://www.w3.org/2000/svg" xmlns:xlink="http://www.w3.org/1999/xlink" version="1.1" x="0px" y="0px" viewBox="0 0 512 512" enable-background="new 0 0 512 512" xml:space="preserve"><path d="M441.578,324.048L293.579,175.376c-15.866-16.05-37.918-24.685-60.436-23.603c-17.334,0.769-34.796-6.366-47.954-19.678  L141.46,87.86c-0.527-0.531-0.682-1.323-0.4-2.013c3.104-7.566,2.031-15.994-2.8-21.994c-3.781-4.704-9.391-7.598-15.383-7.936  c-5.961-0.325-11.879,1.882-16.147,6.102l-2.211,2.186l-3.307-4.973c-2.689-4.049-7.012-6.66-11.852-7.157  c-4.84-0.479-9.597,1.183-13.057,4.604L57.087,75.675c-3.517,3.477-5.244,8.295-4.729,13.219s3.2,9.285,7.363,11.963l4.679,3.007  l-0.124,0.123c-7.513,7.43-8.925,18.926-3.35,27.331c5.534,8.366,16.31,11.76,25.581,8.067l0.655-0.26  c0.708-0.269,1.49-0.109,2.009,0.422l45.031,45.55c12.291,12.437,18.785,29.586,17.809,47.053  c-1.033,18.569,1.868,28.259,12.93,43.206L322.92,441.339c11.803,11.94,27.551,18.57,44.34,18.667c0.127,0,0.25,0,0.373,0  c16.653,0,32.33-6.44,44.183-18.157l29.248-28.909c11.94-11.804,18.569-27.551,18.667-44.34  C459.826,351.81,453.377,335.988,441.578,324.048z M105.609,94.974l-9.931,9.821c-0.154,0.149-0.396,0.181-0.58,0.062l-5.631-3.618  l-6.791-4.364l-6.79-4.364l-8-5.142l0.28-0.492l19.518-19.294l0.41,0.373l5.01,7.534l4.444,6.685l4.444,6.685l3.674,5.526  C105.79,94.569,105.767,94.82,105.609,94.974z M295.258,231.767c-1.534,1.521-3.539,2.277-5.539,2.277  c-2.031,0-4.062-0.782-5.601-2.339l-22.474-22.732c-6.708-6.784-15.642-10.859-25.156-11.475l-6.818-0.439  c-4.344-0.277-7.636-4.027-7.354-8.366c0.281-4.348,4.053-7.676,8.365-7.354l6.823,0.439c13.369,0.861,25.92,6.586,35.342,16.116  l22.474,22.733C298.38,223.722,298.354,228.711,295.258,231.767z M380.246,425.755l-4.862,1.371  c-1.979,0.559-3.974,0.822-5.935,0.822c-9.566,0-18.377-6.313-21.098-15.958l-26.048-92.378  c-3.279-11.624,3.509-23.753,15.136-27.032l4.863-1.372c5.648-1.596,11.549-0.884,16.652,1.974s8.793,7.535,10.38,13.172  l26.048,92.368C398.662,410.346,391.874,422.475,380.246,425.755z"></path></svg></g></svg>