<svg height='100px' width='100px'  fill="#fafdcb" xmlns="http://www.w3.org/2000/svg" xmlns:xlink="http://www.w3.org/1999/xlink" version="1.1" x="0px" y="0px" viewBox="0 0 100 100" enable-background="new 0 0 100 100" xml:space="preserve"><path d="M50,42.5c1.4,0,2.5-1.1,2.5-2.5s-1.1-2.5-2.5-2.5c-4.1,0-7.5-3.4-7.5-7.5V17.5c0-4.1,3.4-7.5,7.5-7.5s7.5,3.4,7.5,7.5V30  c0,1.4,1.1,2.5,2.5,2.5s2.5-1.1,2.5-2.5V17.5C62.5,10.6,56.9,5,50,5s-12.5,5.6-12.5,12.5V30C37.5,36.9,43.1,42.5,50,42.5z"></path><path d="M50,95c6.9,0,12.5-5.6,12.5-12.5V70c0-6.9-5.6-12.5-12.5-12.5c-1.4,0-2.5,1.1-2.5,2.5s1.1,2.5,2.5,2.5  c4.1,0,7.5,3.4,7.5,7.5v12.5c0,4.1-3.4,7.5-7.5,7.5s-7.5-3.4-7.5-7.5V70c0-1.4-1.1-2.5-2.5-2.5s-2.5,1.1-2.5,2.5v12.5  C37.5,89.4,43.1,95,50,95z"></path><path d="M60,58.8c1.4,0,2.5-1.1,2.5-2.5V43.8c0-6.9-5.6-12.5-12.5-12.5c-1.4,0-2.5,1.1-2.5,2.5s1.1,2.5,2.5,2.5  c4.1,0,7.5,3.4,7.5,7.5v12.5C57.5,57.6,58.6,58.8,60,58.8z"></path><path d="M50,68.8c1.4,0,2.5-1.1,2.5-2.5s-1.1-2.5-2.5-2.5c-4.1,0-7.5-3.4-7.5-7.5V43.8c0-1.4-1.1-2.5-2.5-2.5s-2.5,1.1-2.5,2.5v12.5  C37.5,63.1,43.1,68.8,50,68.8z"></path></svg>