<svg xmlns="http://www.w3.org/2000/svg" xmlns:xlink="http://www.w3.org/1999/xlink" width="100" height="100" viewBox="0 0 100 100"><svg viewBox="0 0 99.999997 99.999997"><g transform="translate(-149.6453,-589.21878)"><path d="m 199.64552,591.21879 a 48.000099,48.000099 0 0 0 -48.00022,48.00022 48.000099,48.000099 0 0 0 48.00022,47.99977 48.000099,48.000099 0 0 0 47.99977,-47.99977 48.000099,48.000099 0 0 0 -47.99977,-48.00022 z m 0,5.42088 a 42.107528,42.578935 0 0 1 42.10718,42.57934 42.107528,42.578935 0 0 1 -42.10718,42.57887 42.107528,42.578935 0 0 1 -42.10763,-42.57887 42.107528,42.578935 0 0 1 42.10763,-42.57934 z" fill="#fafdcb"></path></g></svg><g transform="translate(50 50) scale(0.69 0.69) rotate(0) translate(-50 -50)" style="fill:#fafdcb"><svg fill="#fafdcb" xmlns="http://www.w3.org/2000/svg" xmlns:xlink="http://www.w3.org/1999/xlink" version="1.1" x="0px" y="0px" viewBox="0 0 512 512" enable-background="new 0 0 512 512" xml:space="preserve"><path d="M449.702,238.659h-26.12c-3.438-33.467-16.727-64.048-36.891-88.824l18.541-18.541c6.757-6.761,6.757-17.763-0.002-24.524  c-6.762-6.759-17.764-6.763-24.525,0l-18.539,18.54c-24.776-20.165-55.357-33.455-88.825-36.893v-26.12  c0-9.562-7.778-17.341-17.341-17.341c-9.562,0-17.341,7.779-17.341,17.341v26.12c-33.468,3.438-64.049,16.728-88.825,36.893  l-18.54-18.54c-6.761-6.761-17.761-6.761-24.522,0c-6.761,6.762-6.761,17.763,0,24.524l18.538,18.539  c-20.165,24.776-33.456,55.357-36.893,88.826H62.3c-9.564,0-17.343,7.779-17.343,17.341c0,9.563,7.779,17.341,17.343,17.341h26.117  c3.438,33.468,16.728,64.049,36.893,88.825l-18.538,18.537c-3.275,3.275-5.08,7.63-5.08,12.264c0,4.631,1.803,8.988,5.08,12.264  c3.381,3.38,7.821,5.07,12.261,5.07c4.44,0,8.88-1.69,12.261-5.07l18.54-18.541c24.776,20.166,55.357,33.455,88.825,36.893v26.117  c0,9.564,7.779,17.344,17.341,17.344c9.563,0,17.341-7.779,17.341-17.344v-26.117c33.468-3.438,64.048-16.727,88.823-36.891  l18.541,18.541c3.383,3.378,7.823,5.068,12.264,5.068c4.439,0,8.883-1.69,12.264-5.07c6.759-6.764,6.759-17.766-0.002-24.525  l-18.541-18.539c20.166-24.776,33.455-55.357,36.893-88.825h26.12c9.562,0,17.341-7.778,17.341-17.341  C467.043,246.438,459.264,238.659,449.702,238.659z M273.341,159.654c14.106,2.533,27.171,8.087,38.499,15.982l-33.643,33.643  c-1.578-0.753-3.195-1.426-4.856-2.019V159.654z M238.659,159.654v47.606c-1.66,0.593-3.278,1.266-4.855,2.019l-33.643-33.643  C211.489,167.741,224.552,162.187,238.659,159.654z M175.637,200.16l33.644,33.644c-0.752,1.578-1.425,3.195-2.018,4.855h-47.608  C162.187,224.552,167.741,211.488,175.637,200.16z M159.654,273.341h47.609c0.592,1.659,1.265,3.276,2.018,4.854l-33.644,33.645  C167.741,300.512,162.187,287.447,159.654,273.341z M238.659,352.346c-14.106-2.533-27.17-8.086-38.499-15.981l33.645-33.645  c1.577,0.753,3.194,1.425,4.854,2.018V352.346z M256,283.533c-15.206,0-27.533-12.327-27.533-27.533s12.327-27.533,27.533-27.533  s27.533,12.327,27.533,27.533S271.206,283.533,256,283.533z M273.341,352.346v-47.607c1.66-0.594,3.277-1.266,4.854-2.018  l33.643,33.644C300.51,344.26,287.447,349.813,273.341,352.346z M336.363,311.84l-33.643-33.644c0.753-1.577,1.426-3.195,2.02-4.855  h47.605C349.813,287.447,344.26,300.512,336.363,311.84z M304.74,238.659c-0.594-1.66-1.266-3.278-2.019-4.855l33.643-33.643  c7.896,11.328,13.448,24.392,15.981,38.498H304.74z"></path></svg></g></svg>